<svg width="124" height="62" viewBox="0 0 124 62" fill="none" xmlns="http://www.w3.org/2000/svg">
<g filter="url(#filter0_d_170_868)">
<path d="M20.5934 15.92C20.5668 16.72 20.5401 17.36 20.5134 17.84C20.4868 18.2933 20.4468 18.68 20.3934 19C20.3668 19.2933 20.3001 19.56 20.1934 19.8C20.1134 20.04 19.9934 20.3333 19.8334 20.68C19.2734 21.96 18.4068 22.9467 17.2334 23.64C16.0601 24.3333 14.5668 24.68 12.7534 24.68C12.1134 24.68 11.6068 24.68 11.2334 24.68C10.8601 24.68 10.4468 24.6133 9.99344 24.48C9.56677 24.3467 9.0201 24.12 8.35344 23.8C7.68677 23.4533 6.7401 22.96 5.51344 22.32C4.55344 21.8133 4.07344 21.1733 4.07344 20.4C4.07344 19.92 4.23344 19.4933 4.55344 19.12C4.87344 18.72 5.28677 18.4933 5.79344 18.44C7.71344 19.0533 9.03344 19.6933 9.75344 20.36C10.7134 20.7867 11.8734 21 13.2334 21C14.3801 21 15.3001 20.6667 15.9934 20C16.1001 19.7067 16.2068 19.2933 16.3134 18.76C16.4468 18.2267 16.5134 17.5867 16.5134 16.84C16.5134 16.2533 16.3401 15.7733 15.9934 15.4C15.6468 15 15.2068 14.6533 14.6734 14.36C14.1401 14.0667 13.5401 13.8 12.8734 13.56C12.2334 13.32 11.6201 13.0667 11.0334 12.8C10.5801 12.6133 10.1268 12.4 9.67344 12.16C9.2201 11.92 8.76677 11.6133 8.31344 11.24C7.16677 9.29333 6.59344 7.92 6.59344 7.12C6.59344 5.12 7.7801 3.21333 10.1534 1.4C12.3668 0.573333 13.8734 0.159999 14.6734 0.159999C14.9668 0.159999 15.3534 0.266666 15.8334 0.48C16.3134 0.693332 16.7801 0.959999 17.2334 1.28C17.7134 1.6 18.1134 1.96 18.4334 2.36C18.7801 2.73333 18.9534 3.10667 18.9534 3.48C18.9534 3.93333 18.7668 4.33333 18.3934 4.68C18.0468 5 17.5934 5.16 17.0334 5.16C16.9801 5.16 16.8334 5.08 16.5934 4.92C16.3534 4.76 16.0601 4.58667 15.7134 4.4C15.3934 4.21333 15.0601 4.04 14.7134 3.88C14.3934 3.72 14.1268 3.64 13.9134 3.64C13.4601 3.64 13.0201 3.74667 12.5934 3.96C12.1934 4.17333 11.8334 4.44 11.5134 4.76C11.1934 5.08 10.9401 5.44 10.7534 5.84C10.5668 6.21333 10.4734 6.56 10.4734 6.88C10.4734 7.49333 10.6601 8.04 11.0334 8.52C11.4068 9 11.8601 9.38667 12.3934 9.68L14.9134 10.56C15.5534 10.8 16.1801 11.1067 16.7934 11.48C17.4068 11.8533 17.9668 12.28 18.4734 12.76C18.9801 13.2133 19.4201 13.72 19.7934 14.28C20.1668 14.8133 20.4334 15.36 20.5934 15.92ZM41.2613 7.36C40.8879 7.52 40.4746 7.6 40.0213 7.6C39.8879 7.6 39.6879 7.58667 39.4213 7.56C39.1813 7.53333 38.9146 7.50667 38.6213 7.48C38.3279 7.42667 38.0346 7.38667 37.7413 7.36C37.4746 7.30667 37.2746 7.28 37.1413 7.28C36.2879 7.28 35.4613 7.4 34.6613 7.64C34.8213 8.65333 34.9546 9.64 35.0613 10.6C35.1679 11.56 35.2613 12.4667 35.3413 13.32C35.4213 14.1467 35.4746 14.9067 35.5013 15.6C35.5279 16.2667 35.5413 16.84 35.5413 17.32C35.5413 18.52 35.5279 19.56 35.5013 20.44C35.5013 21.2933 35.4346 22.0133 35.3013 22.6C35.1679 23.16 34.9546 23.5733 34.6613 23.84C34.3679 24.1067 33.9413 24.24 33.3813 24.24C32.8479 24.24 32.4479 24.1067 32.1813 23.84C31.9413 23.5467 31.7679 23.2133 31.6613 22.84C31.5813 22.44 31.5413 22.0267 31.5413 21.6C31.5679 21.1733 31.5813 20.8133 31.5813 20.52C31.5813 20.0133 31.6213 19.56 31.7013 19.16C31.7813 18.7333 31.8213 18.3333 31.8213 17.96C31.8213 17.7733 31.7679 17.1067 31.6613 15.96C31.5546 14.7867 31.5013 13.32 31.5013 11.56C31.5013 10.9733 31.4346 10.4 31.3013 9.84C31.1946 9.25333 31.0746 8.69333 30.9413 8.16L28.5813 8.32C27.6213 8.4 26.9546 8.54667 26.5813 8.76C26.0213 8.76 25.5413 8.6 25.1413 8.28C24.7413 7.96 24.5413 7.54667 24.5413 7.04C24.5413 6.53333 24.7679 5.97333 25.2213 5.36C25.3546 5.33333 25.9546 5.24 27.0213 5.08C28.0879 4.89333 29.6213 4.61333 31.6213 4.24L33.6213 4C34.2613 3.92 34.8746 3.88 35.4613 3.88H36.0613L40.7813 4.2C41.3413 4.52 41.6213 5.12 41.6213 6C41.6213 6.48 41.5013 6.93333 41.2613 7.36ZM61.4334 22.56C61.4334 23.04 61.2201 23.4933 60.7934 23.92C60.3668 24.32 59.9401 24.52 59.5134 24.52C59.3001 24.52 59.1268 24.4533 58.9934 24.32C58.9668 24.32 58.8468 24.1867 58.6334 23.92C58.4201 23.6533 58.1668 23.32 57.8734 22.92C57.5801 22.52 57.2601 22.0933 56.9134 21.64C56.5668 21.1867 56.2468 20.76 55.9534 20.36C55.6601 19.96 55.4201 19.64 55.2334 19.4C55.0734 19.1333 55.0068 19.0133 55.0334 19.04C54.9801 18.88 54.8468 18.6267 54.6334 18.28C54.4201 17.9333 54.1801 17.5733 53.9134 17.2C53.6734 16.8 53.4468 16.44 53.2334 16.12C53.0201 15.7733 52.9001 15.56 52.8734 15.48C52.8201 15.48 52.6734 15.5067 52.4334 15.56C52.1934 15.5867 51.9268 15.6267 51.6334 15.68C51.3401 15.7067 51.0334 15.7467 50.7134 15.8C50.4201 15.8267 50.1934 15.84 50.0334 15.84H49.8334C49.7534 16.6667 49.6868 17.3467 49.6334 17.88C49.5801 18.4133 49.5534 18.8133 49.5534 19.08V20.32C49.5534 21.76 49.4334 23.32 49.1934 25C48.8734 25.48 48.4068 25.72 47.7934 25.72C47.2601 25.72 46.7934 25.5733 46.3934 25.28C46.0201 25.0133 45.8334 24.5333 45.8334 23.84C45.8334 23.6267 45.8334 23.3733 45.8334 23.08C45.8601 22.76 45.8734 22.44 45.8734 22.12C45.9001 21.8 45.9134 21.52 45.9134 21.28C45.9401 21.0133 45.9534 20.84 45.9534 20.76V20.56L46.2334 14.52C46.2601 14.1733 46.2601 13.7467 46.2334 13.24C46.2334 12.7333 46.2601 12.1467 46.3134 11.48L46.6334 9.08C46.7934 8.25333 46.8734 7.54667 46.8734 6.96C46.8734 6.77333 46.8601 6.6 46.8334 6.44C46.8334 6.25333 46.8201 6.06667 46.7934 5.88C46.7934 5.88 46.8334 5.41333 46.9134 4.48C46.9401 3.84 47.0601 3.32 47.2734 2.92C47.4868 2.52 47.9934 2.32 48.7934 2.32C49.3534 2.32 49.9134 2.41333 50.4734 2.6C51.0068 2.54667 51.4734 2.52 51.8734 2.52C52.3001 2.52 52.6601 2.52 52.9534 2.52C53.2201 2.52 53.4601 2.53333 53.6734 2.56C53.8868 2.56 54.1001 2.58667 54.3134 2.64C54.5268 2.66666 54.7668 2.72 55.0334 2.8C55.3001 2.85333 55.6201 2.93333 55.9934 3.04L57.7534 4.24C58.7401 5.01333 59.3934 5.78667 59.7134 6.56C60.0601 7.33333 60.2334 8.14667 60.2334 9C60.2334 9.58667 60.2068 10.0933 60.1534 10.52C60.1268 10.92 59.9934 11.32 59.7534 11.72C59.5134 12.12 59.1401 12.5333 58.6334 12.96C58.1268 13.3867 57.4068 13.92 56.4734 14.56C57.0868 15.3333 57.7801 16.48 58.5534 18C59.0334 18.3733 59.9934 19.8933 61.4334 22.56ZM56.5134 9.8C56.5401 9.69333 56.5534 9.54667 56.5534 9.36C56.5534 9.09333 56.5268 8.82667 56.4734 8.56C56.4201 8.26667 56.3001 7.98667 56.1134 7.72C55.9268 7.42667 55.6468 7.14667 55.2734 6.88C54.9268 6.58667 54.4334 6.30667 53.7934 6.04C53.2334 5.82667 52.7668 5.72 52.3934 5.72C52.2868 5.74667 52.1401 5.77333 51.9534 5.8C51.7934 5.85333 51.5934 5.90667 51.3534 5.96C51.1134 5.98667 50.8468 6.02667 50.5534 6.08C50.5801 6.24 50.5934 6.4 50.5934 6.56C50.5934 6.69333 50.5668 6.96 50.5134 7.36C50.4868 7.76 50.4334 8.33333 50.3534 9.08C50.2734 9.82667 50.1801 10.8667 50.0734 12.2C50.1801 12.2267 50.2868 12.24 50.3934 12.24C50.5001 12.24 50.6068 12.24 50.7134 12.24C51.2201 12.24 51.7801 12.1733 52.3934 12.04C53.0334 11.88 53.6334 11.6933 54.1934 11.48C54.7534 11.24 55.2468 10.9733 55.6734 10.68C56.1001 10.3867 56.3801 10.0933 56.5134 9.8ZM79.8213 21.2C80.7012 21.6533 81.1412 22.3067 81.1412 23.16C81.1412 23.72 80.9946 24.12 80.7012 24.36C80.4346 24.6 80.0346 24.76 79.5012 24.84C78.9946 24.9467 78.3546 25 77.5813 25C76.8079 25.0267 75.9412 25.0667 74.9812 25.12C74.6612 25.0133 73.4879 24.9067 71.4612 24.8C71.1679 24.8267 70.8879 24.84 70.6212 24.84C70.3546 24.8667 70.1012 24.88 69.8612 24.88C68.4212 24.88 67.4346 24.6667 66.9012 24.24C66.7679 23.1733 66.6612 22.1867 66.5812 21.28C66.5279 20.3733 66.5012 19.5467 66.5012 18.8C66.5012 17.6267 66.5412 16.6133 66.6212 15.76C66.7279 14.88 66.7812 14.0933 66.7812 13.4C66.7812 12.5467 66.7412 11.88 66.6612 11.4L66.9012 7.2C67.0079 6.18667 67.1279 5.32 67.2612 4.6C67.4212 3.88 67.6079 3.33333 67.8212 2.96C67.9812 2.74667 68.7812 2.48 70.2212 2.16L72.7813 1.6C72.9412 1.57333 73.2746 1.53333 73.7812 1.48C74.2879 1.42667 74.8079 1.37333 75.3412 1.32C75.9012 1.26667 76.3946 1.22667 76.8212 1.2C77.2479 1.17333 77.4479 1.16 77.4213 1.16H77.5813C77.8746 1.16 78.1679 1.36 78.4612 1.76C78.7812 2.16 78.9412 2.62667 78.9412 3.16C78.9412 3.42667 78.9279 3.66667 78.9013 3.88C78.9013 4.09333 78.8212 4.28 78.6612 4.44C78.5013 4.57333 78.2346 4.68 77.8613 4.76C77.4879 4.84 76.9413 4.89333 76.2213 4.92C75.0479 4.97333 74.2479 5.09333 73.8212 5.28H73.6213C72.9279 5.28 72.0612 5.44 71.0212 5.76C70.9146 5.89333 70.8346 6.13333 70.7812 6.48C70.7279 6.8 70.6879 7.14667 70.6612 7.52C70.6346 7.86667 70.6079 8.17333 70.5812 8.44C70.5812 8.68 70.5812 8.76 70.5812 8.68C70.5546 8.81333 70.5279 8.94667 70.5012 9.08C70.5012 9.21333 70.5012 9.38667 70.5012 9.6C70.5012 9.78667 70.5012 10 70.5012 10.24C70.5279 10.4533 70.5546 10.6933 70.5812 10.96C71.4079 10.88 72.0746 10.8 72.5812 10.72C73.1146 10.6133 73.5279 10.56 73.8212 10.56C74.3812 10.56 74.9279 10.5467 75.4613 10.52C75.9946 10.4933 76.4612 10.5333 76.8613 10.64C77.2879 10.72 77.6213 10.9067 77.8613 11.2C78.1013 11.4667 78.2213 11.9067 78.2213 12.52C78.2213 13.2133 77.9946 13.6667 77.5412 13.88C77.1146 14.0933 76.3546 14.2133 75.2612 14.24C73.9812 14.2933 73.2079 14.3467 72.9412 14.4C72.7812 14.4 72.6079 14.4 72.4212 14.4C72.2612 14.3733 72.0746 14.36 71.8612 14.36C71.7279 14.36 71.5679 14.36 71.3812 14.36C71.2212 14.3333 71.0612 14.3333 70.9012 14.36C70.7412 14.36 70.5946 14.4133 70.4612 14.52C70.3546 14.6 70.3012 14.76 70.3012 15C70.3012 15.16 70.3012 15.3733 70.3012 15.64C70.3279 15.88 70.3412 16.1067 70.3412 16.32C70.3412 16.64 70.3279 16.96 70.3012 17.28C70.3012 17.6 70.2879 17.9467 70.2612 18.32C70.2612 18.6667 70.2479 19.0667 70.2212 19.52C70.2212 19.9733 70.2212 20.5067 70.2212 21.12C70.3812 21.1467 70.6879 21.1733 71.1412 21.2C71.6212 21.2267 72.1146 21.2533 72.6212 21.28C73.1546 21.3067 73.6613 21.3467 74.1412 21.4C74.6212 21.4267 74.9412 21.4533 75.1013 21.48C75.1279 21.48 75.3146 21.4667 75.6613 21.44C76.0079 21.4133 76.5146 21.3733 77.1812 21.32C78.0879 21.24 78.8079 21.2 79.3413 21.2H79.8213ZM99.1478 21.2C100.028 21.6533 100.468 22.3067 100.468 23.16C100.468 23.72 100.321 24.12 100.028 24.36C99.7611 24.6 99.3611 24.76 98.8278 24.84C98.3211 24.9467 97.6811 25 96.9078 25C96.1345 25.0267 95.2678 25.0667 94.3078 25.12C93.9878 25.0133 92.8145 24.9067 90.7878 24.8C90.4945 24.8267 90.2145 24.84 89.9478 24.84C89.6811 24.8667 89.4278 24.88 89.1878 24.88C87.7478 24.88 86.7611 24.6667 86.2278 24.24C86.0945 23.1733 85.9878 22.1867 85.9078 21.28C85.8545 20.3733 85.8278 19.5467 85.8278 18.8C85.8278 17.6267 85.8678 16.6133 85.9478 15.76C86.0545 14.88 86.1078 14.0933 86.1078 13.4C86.1078 12.5467 86.0678 11.88 85.9878 11.4L86.2278 7.2C86.3345 6.18667 86.4545 5.32 86.5878 4.6C86.7478 3.88 86.9345 3.33333 87.1478 2.96C87.3078 2.74667 88.1078 2.48 89.5478 2.16L92.1078 1.6C92.2678 1.57333 92.6011 1.53333 93.1078 1.48C93.6145 1.42667 94.1345 1.37333 94.6678 1.32C95.2278 1.26667 95.7211 1.22667 96.1478 1.2C96.5745 1.17333 96.7745 1.16 96.7478 1.16H96.9078C97.2011 1.16 97.4945 1.36 97.7878 1.76C98.1078 2.16 98.2678 2.62667 98.2678 3.16C98.2678 3.42667 98.2545 3.66667 98.2278 3.88C98.2278 4.09333 98.1478 4.28 97.9878 4.44C97.8278 4.57333 97.5611 4.68 97.1878 4.76C96.8145 4.84 96.2678 4.89333 95.5478 4.92C94.3745 4.97333 93.5745 5.09333 93.1478 5.28H92.9478C92.2545 5.28 91.3878 5.44 90.3478 5.76C90.2411 5.89333 90.1611 6.13333 90.1078 6.48C90.0545 6.8 90.0145 7.14667 89.9878 7.52C89.9611 7.86667 89.9345 8.17333 89.9078 8.44C89.9078 8.68 89.9078 8.76 89.9078 8.68C89.8811 8.81333 89.8545 8.94667 89.8278 9.08C89.8278 9.21333 89.8278 9.38667 89.8278 9.6C89.8278 9.78667 89.8278 10 89.8278 10.24C89.8545 10.4533 89.8811 10.6933 89.9078 10.96C90.7345 10.88 91.4011 10.8 91.9078 10.72C92.4411 10.6133 92.8545 10.56 93.1478 10.56C93.7078 10.56 94.2545 10.5467 94.7878 10.52C95.3211 10.4933 95.7878 10.5333 96.1878 10.64C96.6145 10.72 96.9478 10.9067 97.1878 11.2C97.4278 11.4667 97.5478 11.9067 97.5478 12.52C97.5478 13.2133 97.3211 13.6667 96.8678 13.88C96.4411 14.0933 95.6811 14.2133 94.5878 14.24C93.3078 14.2933 92.5345 14.3467 92.2678 14.4C92.1078 14.4 91.9345 14.4 91.7478 14.4C91.5878 14.3733 91.4011 14.36 91.1878 14.36C91.0545 14.36 90.8945 14.36 90.7078 14.36C90.5478 14.3333 90.3878 14.3333 90.2278 14.36C90.0678 14.36 89.9211 14.4133 89.7878 14.52C89.6811 14.6 89.6278 14.76 89.6278 15C89.6278 15.16 89.6278 15.3733 89.6278 15.64C89.6545 15.88 89.6678 16.1067 89.6678 16.32C89.6678 16.64 89.6545 16.96 89.6278 17.28C89.6278 17.6 89.6145 17.9467 89.5878 18.32C89.5878 18.6667 89.5745 19.0667 89.5478 19.52C89.5478 19.9733 89.5478 20.5067 89.5478 21.12C89.7078 21.1467 90.0145 21.1733 90.4678 21.2C90.9478 21.2267 91.4411 21.2533 91.9478 21.28C92.4811 21.3067 92.9878 21.3467 93.4678 21.4C93.9478 21.4267 94.2678 21.4533 94.4278 21.48C94.4545 21.48 94.6411 21.4667 94.9878 21.44C95.3345 21.4133 95.8411 21.3733 96.5078 21.32C97.4145 21.24 98.1345 21.2 98.6678 21.2H99.1478ZM119.114 7.36C118.741 7.52 118.328 7.6 117.874 7.6C117.741 7.6 117.541 7.58667 117.274 7.56C117.034 7.53333 116.768 7.50667 116.474 7.48C116.181 7.42667 115.888 7.38667 115.594 7.36C115.328 7.30667 115.128 7.28 114.994 7.28C114.141 7.28 113.314 7.4 112.514 7.64C112.674 8.65333 112.808 9.64 112.914 10.6C113.021 11.56 113.114 12.4667 113.194 13.32C113.274 14.1467 113.328 14.9067 113.354 15.6C113.381 16.2667 113.394 16.84 113.394 17.32C113.394 18.52 113.381 19.56 113.354 20.44C113.354 21.2933 113.288 22.0133 113.154 22.6C113.021 23.16 112.808 23.5733 112.514 23.84C112.221 24.1067 111.794 24.24 111.234 24.24C110.701 24.24 110.301 24.1067 110.034 23.84C109.794 23.5467 109.621 23.2133 109.514 22.84C109.434 22.44 109.394 22.0267 109.394 21.6C109.421 21.1733 109.434 20.8133 109.434 20.52C109.434 20.0133 109.474 19.56 109.554 19.16C109.634 18.7333 109.674 18.3333 109.674 17.96C109.674 17.7733 109.621 17.1067 109.514 15.96C109.408 14.7867 109.354 13.32 109.354 11.56C109.354 10.9733 109.288 10.4 109.154 9.84C109.048 9.25333 108.928 8.69333 108.794 8.16L106.434 8.32C105.474 8.4 104.808 8.54667 104.434 8.76C103.874 8.76 103.394 8.6 102.994 8.28C102.594 7.96 102.394 7.54667 102.394 7.04C102.394 6.53333 102.621 5.97333 103.074 5.36C103.208 5.33333 103.808 5.24 104.874 5.08C105.941 4.89333 107.474 4.61333 109.474 4.24L111.474 4C112.114 3.92 112.728 3.88 113.314 3.88H113.914L118.634 4.2C119.194 4.52 119.474 5.12 119.474 6C119.474 6.48 119.354 6.93333 119.114 7.36ZM40.3798 46.6C40.2998 46.92 40.0998 47.3067 39.7798 47.76C39.4865 48.2133 39.1132 48.68 38.6598 49.16C38.2065 49.6133 37.7132 50.0267 37.1798 50.4C36.6732 50.7733 36.1798 51.04 35.6998 51.2C34.3132 51.8133 32.7532 52.12 31.0198 52.12C30.4598 52.12 29.9665 52.1067 29.5398 52.08C29.1398 52.0533 28.7398 51.9733 28.3398 51.84C27.9398 51.7067 27.5398 51.4933 27.1398 51.2C26.7398 50.9067 26.2865 50.48 25.7798 49.92C25.2198 49.3333 24.7798 48.76 24.4598 48.2C24.1398 47.6133 23.8998 47.0533 23.7398 46.52C23.5798 45.9867 23.4732 45.48 23.4198 45C23.3665 44.4933 23.3398 44.04 23.3398 43.64C23.3398 42.76 23.4465 41.72 23.6598 40.52C23.8732 39.32 24.4465 37.8533 25.3798 36.12C25.7265 35.48 25.9932 34.9733 26.1798 34.6C26.3665 34.2267 26.4732 33.9733 26.4998 33.84L28.9798 32.32C29.8332 31.8133 30.6465 31.4133 31.4198 31.12C32.1932 30.8 33.0465 30.64 33.9798 30.64C34.2465 30.64 34.6465 30.64 35.1798 30.64C35.7132 30.64 36.2332 30.7067 36.7398 30.84C37.2732 30.9467 37.7398 31.16 38.1398 31.48C38.5398 31.7733 38.7398 32.2133 38.7398 32.8C38.7398 33.7867 38.1532 34.36 36.9798 34.52C37.0065 34.52 36.9265 34.5067 36.7398 34.48C36.5532 34.4533 36.2998 34.4267 35.9798 34.4C35.6598 34.3733 35.2998 34.3467 34.8998 34.32C34.4998 34.2933 34.0998 34.28 33.6998 34.28C33.0065 34.28 32.2998 34.48 31.5798 34.88C30.8865 35.2533 30.0332 35.9067 29.0198 36.84C28.4865 37.96 28.0865 38.84 27.8198 39.48C27.5798 40.0933 27.4598 40.5067 27.4598 40.72C27.1665 41.2533 27.0198 42.04 27.0198 43.08C27.0198 45 27.3665 46.3867 28.0598 47.24C28.7532 48.0667 29.6998 48.48 30.8998 48.48C31.6732 48.48 32.8732 48.2667 34.4998 47.84C35.4865 47.2533 36.3398 46.32 37.0598 45.04C37.5132 44.5867 37.9798 44.36 38.4598 44.36C38.9665 44.36 39.4198 44.56 39.8198 44.96C40.2198 45.36 40.4198 45.8133 40.4198 46.32C40.4198 46.3733 40.4065 46.4267 40.3798 46.48C40.3798 46.5067 40.3798 46.5467 40.3798 46.6ZM62.2148 52.36C62.1082 52.8667 61.6148 53.12 60.7348 53.12C60.0148 53.12 59.4948 52.96 59.1748 52.64C59.0415 52.1867 58.8548 51.64 58.6148 51C58.3748 50.3333 58.0948 49.5733 57.7748 48.72C57.6148 47.68 57.4548 46.9467 57.2948 46.52C57.1615 46.0933 56.9882 45.7733 56.7748 45.56C56.3748 45.5867 55.8015 45.64 55.0548 45.72C54.3082 45.7733 53.5215 45.8533 52.6948 45.96C51.8682 46.04 51.0948 46.16 50.3748 46.32C49.6548 46.4533 49.1348 46.6 48.8148 46.76C48.6815 47.4267 48.5215 48.16 48.3348 48.96C48.1482 49.76 47.9215 50.6133 47.6548 51.52C47.5748 51.7867 47.3882 51.9733 47.0948 52.08C46.8015 52.2133 46.4415 52.28 46.0148 52.28C45.5882 52.28 45.2148 52.2 44.8948 52.04C44.6015 51.9067 44.4548 51.6933 44.4548 51.4C44.4548 50.8667 44.7748 49.28 45.4148 46.64C45.3882 46.5333 45.3748 46.3733 45.3748 46.16C45.3748 45.8133 45.4148 45.3867 45.4948 44.88C45.6015 44.3467 45.7082 43.84 45.8148 43.36C45.9215 42.88 46.0148 42.4667 46.0948 42.12C46.2015 41.7733 46.2548 41.5867 46.2548 41.56L47.5348 38C47.5882 37.6533 47.7215 37.1867 47.9348 36.6C48.1748 36.0133 48.4282 35.4133 48.6948 34.8C48.9615 34.1867 49.2148 33.6133 49.4548 33.08C49.6948 32.52 49.8548 32.0933 49.9348 31.8C50.1748 30.92 50.8148 30.48 51.8548 30.48C52.7082 30.48 53.2548 30.8 53.4948 31.44C53.4948 31.44 53.5748 31.5867 53.7348 31.88C53.8948 32.1733 54.1082 32.5467 54.3748 33C54.6415 33.4533 54.9215 33.96 55.2148 34.52C55.5348 35.0533 55.8282 35.5733 56.0948 36.08C56.3615 36.56 56.5882 37 56.7748 37.4C56.9615 37.7733 57.0682 38.0267 57.0948 38.16C57.3082 38.6667 57.5748 39.2533 57.8948 39.92C58.2148 40.56 58.6015 41.28 59.0548 42.08C59.3215 42.4267 59.5615 42.8933 59.7748 43.48C60.0148 44.04 60.2282 44.6133 60.4148 45.2C60.6015 45.7867 60.7615 46.32 60.8948 46.8C61.0282 47.28 61.1482 47.6 61.2548 47.76C61.2548 47.9467 61.3082 48.24 61.4148 48.64C61.5482 49.0133 61.6682 49.4133 61.7748 49.84C61.9082 50.2667 62.0282 50.6667 62.1348 51.04C62.2415 51.4133 62.2948 51.68 62.2948 51.84C62.2948 51.9733 62.2682 52.1467 62.2148 52.36ZM55.2148 42.28C55.0015 41.64 54.8015 41.0933 54.6148 40.64C54.4548 40.1867 54.2548 39.7333 54.0148 39.28C53.8015 38.8267 53.5482 38.32 53.2548 37.76C52.9615 37.1733 52.5882 36.4267 52.1348 35.52C51.5215 36.64 51.0815 37.9333 50.8148 39.4C50.2548 40.4933 49.8548 41.6533 49.6148 42.88C50.4415 42.64 51.1082 42.52 51.6148 42.52C51.8015 42.52 51.9348 42.5333 52.0148 42.56C52.4682 42.4533 53.0148 42.4 53.6548 42.4C54.2948 42.4 54.8148 42.36 55.2148 42.28ZM81.3402 35.36C80.9668 35.52 80.5535 35.6 80.1002 35.6C79.9668 35.6 79.7668 35.5867 79.5002 35.56C79.2602 35.5333 78.9935 35.5067 78.7002 35.48C78.4068 35.4267 78.1135 35.3867 77.8202 35.36C77.5535 35.3067 77.3535 35.28 77.2202 35.28C76.3668 35.28 75.5402 35.4 74.7402 35.64C74.9002 36.6533 75.0335 37.64 75.1402 38.6C75.2468 39.56 75.3402 40.4667 75.4202 41.32C75.5002 42.1467 75.5535 42.9067 75.5802 43.6C75.6068 44.2667 75.6202 44.84 75.6202 45.32C75.6202 46.52 75.6068 47.56 75.5802 48.44C75.5802 49.2933 75.5135 50.0133 75.3802 50.6C75.2468 51.16 75.0335 51.5733 74.7402 51.84C74.4468 52.1067 74.0202 52.24 73.4602 52.24C72.9268 52.24 72.5268 52.1067 72.2602 51.84C72.0202 51.5467 71.8468 51.2133 71.7402 50.84C71.6602 50.44 71.6202 50.0267 71.6202 49.6C71.6468 49.1733 71.6602 48.8133 71.6602 48.52C71.6602 48.0133 71.7002 47.56 71.7802 47.16C71.8602 46.7333 71.9002 46.3333 71.9002 45.96C71.9002 45.7733 71.8468 45.1067 71.7402 43.96C71.6335 42.7867 71.5802 41.32 71.5802 39.56C71.5802 38.9733 71.5135 38.4 71.3802 37.84C71.2735 37.2533 71.1535 36.6933 71.0202 36.16L68.6602 36.32C67.7002 36.4 67.0335 36.5467 66.6602 36.76C66.1002 36.76 65.6202 36.6 65.2202 36.28C64.8202 35.96 64.6202 35.5467 64.6202 35.04C64.6202 34.5333 64.8468 33.9733 65.3002 33.36C65.4335 33.3333 66.0335 33.24 67.1002 33.08C68.1668 32.8933 69.7002 32.6133 71.7002 32.24L73.7002 32C74.3402 31.92 74.9535 31.88 75.5402 31.88H76.1402L80.8602 32.2C81.4202 32.52 81.7002 33.12 81.7002 34C81.7002 34.48 81.5802 34.9333 81.3402 35.36ZM99.8723 43.92C99.8457 44.72 99.819 45.36 99.7923 45.84C99.7657 46.2933 99.7257 46.68 99.6723 47C99.6457 47.2933 99.579 47.56 99.4723 47.8C99.3923 48.04 99.2723 48.3333 99.1123 48.68C98.5523 49.96 97.6857 50.9467 96.5123 51.64C95.339 52.3333 93.8457 52.68 92.0323 52.68C91.3923 52.68 90.8857 52.68 90.5123 52.68C90.139 52.68 89.7257 52.6133 89.2723 52.48C88.8457 52.3467 88.299 52.12 87.6323 51.8C86.9657 51.4533 86.019 50.96 84.7923 50.32C83.8323 49.8133 83.3523 49.1733 83.3523 48.4C83.3523 47.92 83.5123 47.4933 83.8323 47.12C84.1523 46.72 84.5657 46.4933 85.0723 46.44C86.9923 47.0533 88.3123 47.6933 89.0323 48.36C89.9923 48.7867 91.1523 49 92.5123 49C93.659 49 94.579 48.6667 95.2723 48C95.379 47.7067 95.4857 47.2933 95.5923 46.76C95.7257 46.2267 95.7923 45.5867 95.7923 44.84C95.7923 44.2533 95.619 43.7733 95.2723 43.4C94.9257 43 94.4857 42.6533 93.9523 42.36C93.419 42.0667 92.819 41.8 92.1523 41.56C91.5123 41.32 90.899 41.0667 90.3123 40.8C89.859 40.6133 89.4057 40.4 88.9523 40.16C88.499 39.92 88.0457 39.6133 87.5923 39.24C86.4457 37.2933 85.8723 35.92 85.8723 35.12C85.8723 33.12 87.059 31.2133 89.4323 29.4C91.6457 28.5733 93.1523 28.16 93.9523 28.16C94.2457 28.16 94.6323 28.2667 95.1123 28.48C95.5923 28.6933 96.059 28.96 96.5123 29.28C96.9923 29.6 97.3923 29.96 97.7123 30.36C98.059 30.7333 98.2323 31.1067 98.2323 31.48C98.2323 31.9333 98.0457 32.3333 97.6723 32.68C97.3257 33 96.8723 33.16 96.3123 33.16C96.259 33.16 96.1123 33.08 95.8723 32.92C95.6323 32.76 95.339 32.5867 94.9923 32.4C94.6723 32.2133 94.339 32.04 93.9923 31.88C93.6723 31.72 93.4057 31.64 93.1923 31.64C92.739 31.64 92.299 31.7467 91.8723 31.96C91.4723 32.1733 91.1123 32.44 90.7923 32.76C90.4723 33.08 90.219 33.44 90.0323 33.84C89.8457 34.2133 89.7523 34.56 89.7523 34.88C89.7523 35.4933 89.939 36.04 90.3123 36.52C90.6857 37 91.139 37.3867 91.6723 37.68L94.1923 38.56C94.8323 38.8 95.459 39.1067 96.0723 39.48C96.6857 39.8533 97.2457 40.28 97.7523 40.76C98.259 41.2133 98.699 41.72 99.0723 42.28C99.4457 42.8133 99.7123 43.36 99.8723 43.92Z" fill="black"/>
</g>
<defs>
<filter id="filter0_d_170_868" x="0.0732422" y="0.160156" width="123.401" height="60.96" filterUnits="userSpaceOnUse" color-interpolation-filters="sRGB">
<feFlood flood-opacity="0" result="BackgroundImageFix"/>
<feColorMatrix in="SourceAlpha" type="matrix" values="0 0 0 0 0 0 0 0 0 0 0 0 0 0 0 0 0 0 127 0" result="hardAlpha"/>
<feOffset dy="4"/>
<feGaussianBlur stdDeviation="2"/>
<feComposite in2="hardAlpha" operator="out"/>
<feColorMatrix type="matrix" values="0 0 0 0 0 0 0 0 0 0 0 0 0 0 0 0 0 0 0.25 0"/>
<feBlend mode="normal" in2="BackgroundImageFix" result="effect1_dropShadow_170_868"/>
<feBlend mode="normal" in="SourceGraphic" in2="effect1_dropShadow_170_868" result="shape"/>
</filter>
</defs>
</svg>
